Coordinates
version=1
nRows=8
nColumns=63
inDegrees=yes

Units are S.I. units (second, meters, Newtons, ...)
If the header above contains a line with 'inDegrees', this indicates whether rotational values are in degrees (yes) or radians (no).

endheader
time	pelvis_tilt	pelvis_list	pelvis_rotation	pelvis_tx	pelvis_ty	pelvis_tz	hip_flexion_r	hip_adduction_r	hip_rotation_r	knee_angle_r	knee_angle_r_beta	ankle_angle_r	subtalar_angle_r	mtp_angle_r	hip_flexion_l	hip_adduction_l	hip_rotation_l	knee_angle_l	knee_angle_l_beta	ankle_angle_l	subtalar_angle_l	mtp_angle_l	L5_S1_Flex_Ext	L5_S1_Lat_Bending	L5_S1_axial_rotation	L4_L5_Flex_Ext	L4_L5_Lat_Bending	L4_L5_axial_rotation	L3_L4_Flex_Ext	L3_L4_Lat_Bending	L3_L4_axial_rotation	L2_L3_Flex_Ext	L2_L3_Lat_Bending	L2_L3_axial_rotation	L1_L2_Flex_Ext	L1_L2_Lat_Bending	L1_L2_axial_rotation	L1_T12_Flex_Ext	L1_T12_Lat_Bending	L1_T12_axial_rotation	Abs_r3	Abs_r2	Abs_r1	Abs_t1	Abs_t2	neck_flexion	neck_bending	neck_rotation	arm_flex_r	arm_add_r	arm_rot_r	elbow_flex_r	pro_sup_r	wrist_flex_r	wrist_dev_r	arm_flex_l	arm_add_l	arm_rot_l	elbow_flex_l	pro_sup_l	wrist_flex_l	wrist_dev_l
0.000000	7.445668	-3.102881	87.699148	0.455682	0.579571	0.687256	7.070624	4.391021	-9.781072	12.334885	0.215284	25.190457	6.091646	0.000000	2.962907	-3.557511	-7.602410	6.153732	0.107403	26.734913	2.573549	0.000000	0.212355	0.571646	0.770779	0.394364	0.760289	0.818953	0.348878	1.389900	0.818953	0.242700	1.389900	0.674432	0.197193	1.165701	0.626258	0.121340	0.885480	0.578084	1.516829	6.466575	4.286841	0.000000	0.000000	27.573692	-7.425271	-2.030582	19.786178	-17.233242	76.125288	57.768782	70.090808	17.185565	16.960370	14.014104	-7.576851	61.657239	53.054367	88.611070	20.301981	27.342614
0.020000	7.172264	-3.434100	87.168560	0.456463	0.579205	0.689097	7.617406	4.159591	-9.019729	12.625664	0.220359	24.929010	6.187059	0.000000	3.474487	-3.343704	-8.840797	6.338139	0.110621	27.388499	3.599375	0.000000	0.237160	0.539320	0.917998	0.440430	0.717296	0.975373	0.389630	1.311303	0.975373	0.271050	1.311303	0.803249	0.220227	1.099782	0.745874	0.135513	0.835407	0.688499	1.694012	6.100898	5.105631	0.000000	0.000000	27.659613	-7.054125	-2.539683	19.748274	-17.526168	76.922471	58.218181	58.636001	13.610653	20.297602	14.217097	-7.413882	61.722217	52.830748	88.242608	19.452454	26.921593
0.040000	6.967336	-3.674114	86.697523	0.457180	0.578951	0.690477	8.028708	4.002007	-8.302073	12.855704	0.224374	24.728593	6.160540	0.000000	3.835786	-3.193605	-9.930599	6.478889	0.113078	27.858870	4.500414	0.000000	0.255667	0.515264	1.037689	0.474799	0.685301	1.102545	0.420035	1.252812	1.102545	0.292201	1.252812	0.907978	0.237412	1.050726	0.843123	0.146088	0.798143	0.778267	1.826202	5.828765	5.771317	0.000000	0.000000	27.716506	-6.711000	-2.926615	19.761180	-17.736457	77.619001	58.506479	49.902117	11.015631	22.726555	14.318175	-7.249341	61.600917	52.644980	87.923061	18.833320	26.579539
0.060000	6.824417	-3.832094	86.284372	0.457836	0.578798	0.691439	8.316692	3.911084	-7.629786	13.028680	0.227393	24.582873	6.026131	0.000000	4.062320	-3.101254	-10.882348	6.580522	0.114852	28.163663	5.288609	0.000000	0.268511	0.498697	1.131234	0.498652	0.663267	1.201936	0.441137	1.212531	1.201936	0.306882	1.212531	0.989830	0.249340	1.016942	0.919128	0.153427	0.772481	0.848425	1.917949	5.641356	6.291584	0.000000	0.000000	27.747988	-6.396051	-3.199160	19.821985	-17.870181	78.226645	58.650804	43.650006	9.301939	24.330321	14.324887	-7.085889	61.310136	52.496551	87.649337	18.420803	26.311786
0.080000	6.737035	-3.917206	85.927443	0.458436	0.578737	0.692025	8.493520	3.879638	-7.004555	13.148267	0.229481	24.485518	5.797875	0.000000	4.169608	-3.060692	-11.706577	6.647576	0.116022	28.320513	5.975903	0.000000	0.276331	0.488840	1.200014	0.513174	0.650157	1.275015	0.453984	1.188565	1.275015	0.315819	1.188565	1.050013	0.256601	0.996842	0.975012	0.157895	0.757213	0.900011	1.973804	5.529851	6.674121	0.000000	0.000000	27.757680	-6.109431	-3.365098	19.927779	-17.933410	78.757171	58.668282	39.640517	8.371018	25.191995	14.244783	-6.926188	60.866673	52.384948	87.418349	18.191125	26.113669
0.100000	6.698723	-3.938622	85.625073	0.458983	0.578755	0.692278	8.571353	3.900480	-6.428061	13.218138	0.230700	24.430195	5.489814	0.000000	4.173165	-3.065957	-12.413815	6.684592	0.116668	28.347057	6.574239	0.000000	0.279762	0.484913	1.245413	0.519547	0.644934	1.323251	0.459622	1.179017	1.323251	0.319740	1.179017	1.089736	0.259787	0.988834	1.011898	0.159856	0.751130	0.934060	1.998315	5.485430	6.926613	0.000000	0.000000	27.749201	-5.851292	-3.432207	20.075650	-17.932215	79.222346	58.576040	37.634502	8.124308	25.394669	14.085412	-6.772899	60.287325	52.309658	87.227005	18.120508	25.980523
0.120000	6.703012	-3.905509	85.375598	0.459481	0.578843	0.692240	8.562352	3.966427	-5.901989	13.241970	0.231116	24.410573	5.115991	0.000000	4.088509	-3.111089	-13.014595	6.696109	0.116869	28.260932	7.095560	0.000000	0.279443	0.486136	1.268812	0.518953	0.646562	1.348112	0.459097	1.181992	1.348112	0.319375	1.181992	1.110210	0.259491	0.991330	1.030909	0.159674	0.753025	0.951609	1.996032	5.499273	7.056750	0.000000	0.000000	27.726169	-5.621788	-3.408269	20.262690	-17.872666	79.633937	58.391206	37.392809	8.463249	25.021439	13.854323	-6.628682	59.588891	52.270170	87.072217	18.185177	25.907682
0.140000	6.743430	-3.827037	85.177355	0.459933	0.578989	0.691954	8.478680	4.070293	-5.428024	13.223435	0.230792	24.420318	4.690447	0.000000	3.931157	-3.190129	-13.519447	6.686665	0.116704	28.079772	7.551807	0.000000	0.276009	0.491731	1.271593	0.512576	0.654002	1.351067	0.453455	1.195595	1.351067	0.315451	1.195595	1.112643	0.256302	1.002738	1.033169	0.157712	0.761691	0.953694	1.971505	5.562560	7.072216	0.000000	0.000000	27.692203	-5.421071	-3.301063	20.485986	-17.760833	80.003712	58.130905	38.676288	9.289282	24.155397	13.559066	-6.496198	58.788167	52.265971	86.950894	18.361353	25.890483
